<mxfile host="app.diagrams.net" agent="Mozilla/5.0 (Macintosh; Intel Mac OS X 10_15_7) AppleWebKit/605.1.15 (KHTML, like Gecko) Version/18.0.1 Safari/605.1.15" version="24.7.17">
  <diagram name="Pagina-1" id="EkfTAN4hH_TVddPuiA1x">
    <mxGraphModel dx="2477" dy="1153" grid="1" gridSize="10" guides="1" tooltips="1" connect="1" arrows="1" fold="1" page="1" pageScale="1" pageWidth="827" pageHeight="1169" math="0" shadow="0">
      <root>
        <mxCell id="0" />
        <mxCell id="1" parent="0" />
        <mxCell id="Gjo6DUxktxaH3FMSYRhE-1" value="Personale medico" style="rounded=0;whiteSpace=wrap;html=1;" parent="1" vertex="1">
          <mxGeometry x="40" y="440" width="120" height="60" as="geometry" />
        </mxCell>
        <mxCell id="Gjo6DUxktxaH3FMSYRhE-2" value="Medici" style="rounded=0;whiteSpace=wrap;html=1;" parent="1" vertex="1">
          <mxGeometry x="-120" y="600" width="120" height="60" as="geometry" />
        </mxCell>
        <mxCell id="Gjo6DUxktxaH3FMSYRhE-3" value="Chirurgi" style="rounded=0;whiteSpace=wrap;html=1;" parent="1" vertex="1">
          <mxGeometry x="40" y="600" width="120" height="60" as="geometry" />
        </mxCell>
        <mxCell id="Gjo6DUxktxaH3FMSYRhE-4" value="Infermieri" style="rounded=0;whiteSpace=wrap;html=1;" parent="1" vertex="1">
          <mxGeometry x="200" y="600" width="120" height="60" as="geometry" />
        </mxCell>
        <mxCell id="Gjo6DUxktxaH3FMSYRhE-5" value="Pazienti" style="rounded=0;whiteSpace=wrap;html=1;" parent="1" vertex="1">
          <mxGeometry x="800" y="760" width="120" height="60" as="geometry" />
        </mxCell>
        <mxCell id="Gjo6DUxktxaH3FMSYRhE-6" value="Maggiorenne" style="rounded=0;whiteSpace=wrap;html=1;" parent="1" vertex="1">
          <mxGeometry x="720" y="880" width="120" height="60" as="geometry" />
        </mxCell>
        <mxCell id="Gjo6DUxktxaH3FMSYRhE-7" value="Minorenne" style="rounded=0;whiteSpace=wrap;html=1;" parent="1" vertex="1">
          <mxGeometry x="880" y="880" width="120" height="60" as="geometry" />
        </mxCell>
        <mxCell id="Gjo6DUxktxaH3FMSYRhE-8" value="Reparti" style="rounded=0;whiteSpace=wrap;html=1;" parent="1" vertex="1">
          <mxGeometry x="440" y="300" width="120" height="60" as="geometry" />
        </mxCell>
        <mxCell id="Gjo6DUxktxaH3FMSYRhE-10" value="Camere" style="rounded=0;whiteSpace=wrap;html=1;" parent="1" vertex="1">
          <mxGeometry x="1000" y="600" width="120" height="60" as="geometry" />
        </mxCell>
        <mxCell id="Gjo6DUxktxaH3FMSYRhE-11" value="Sale operatorie" style="rounded=0;whiteSpace=wrap;html=1;" parent="1" vertex="1">
          <mxGeometry x="40" y="920" width="120" height="60" as="geometry" />
        </mxCell>
        <mxCell id="Gjo6DUxktxaH3FMSYRhE-12" value="Operazioni" style="rounded=0;whiteSpace=wrap;html=1;" parent="1" vertex="1">
          <mxGeometry x="200" y="1080" width="120" height="60" as="geometry" />
        </mxCell>
        <mxCell id="Gjo6DUxktxaH3FMSYRhE-14" value="Attrezzatura medica" style="rounded=0;whiteSpace=wrap;html=1;" parent="1" vertex="1">
          <mxGeometry x="-120" y="300" width="120" height="60" as="geometry" />
        </mxCell>
        <mxCell id="Gjo6DUxktxaH3FMSYRhE-15" value="Farmaci" style="rounded=0;whiteSpace=wrap;html=1;" parent="1" vertex="1">
          <mxGeometry x="200" y="920" width="120" height="60" as="geometry" />
        </mxCell>
        <mxCell id="Gjo6DUxktxaH3FMSYRhE-16" value="Visiti prenotate" style="rounded=0;whiteSpace=wrap;html=1;" parent="1" vertex="1">
          <mxGeometry x="-120" y="920" width="120" height="60" as="geometry" />
        </mxCell>
        <mxCell id="Gjo6DUxktxaH3FMSYRhE-17" value="Cartella clinica" style="rounded=0;whiteSpace=wrap;html=1;" parent="1" vertex="1">
          <mxGeometry x="600" y="600" width="120" height="60" as="geometry" />
        </mxCell>
        <mxCell id="Gjo6DUxktxaH3FMSYRhE-18" value="Riabilitazione" style="rounded=0;whiteSpace=wrap;html=1;" parent="1" vertex="1">
          <mxGeometry x="800" y="440" width="120" height="60" as="geometry" />
        </mxCell>
        <mxCell id="GProfhIi8R3kbPbWlugL-2" value="" style="endArrow=none;html=1;rounded=0;" parent="1" edge="1">
          <mxGeometry width="50" height="50" relative="1" as="geometry">
            <mxPoint x="100" y="540" as="sourcePoint" />
            <mxPoint x="99.91999999999999" y="540" as="targetPoint" />
          </mxGeometry>
        </mxCell>
        <mxCell id="GProfhIi8R3kbPbWlugL-6" value="" style="shape=flexArrow;endArrow=classic;html=1;rounded=0;fillColor=#000000;fillStyle=auto;" parent="1" edge="1">
          <mxGeometry width="50" height="50" relative="1" as="geometry">
            <mxPoint x="100" y="560" as="sourcePoint" />
            <mxPoint x="100" y="500" as="targetPoint" />
          </mxGeometry>
        </mxCell>
        <mxCell id="GProfhIi8R3kbPbWlugL-7" value="" style="endArrow=none;html=1;rounded=0;" parent="1" edge="1">
          <mxGeometry width="50" height="50" relative="1" as="geometry">
            <mxPoint x="779.8" y="880" as="sourcePoint" />
            <mxPoint x="779.8" y="860" as="targetPoint" />
          </mxGeometry>
        </mxCell>
        <mxCell id="GProfhIi8R3kbPbWlugL-8" value="" style="endArrow=none;html=1;rounded=0;" parent="1" edge="1">
          <mxGeometry width="50" height="50" relative="1" as="geometry">
            <mxPoint x="939.8" y="880" as="sourcePoint" />
            <mxPoint x="939.8" y="860" as="targetPoint" />
          </mxGeometry>
        </mxCell>
        <mxCell id="GProfhIi8R3kbPbWlugL-10" value="" style="shape=flexArrow;endArrow=classic;html=1;rounded=0;fillColor=#000000;" parent="1" edge="1">
          <mxGeometry width="50" height="50" relative="1" as="geometry">
            <mxPoint x="860" y="860" as="sourcePoint" />
            <mxPoint x="860" y="820" as="targetPoint" />
          </mxGeometry>
        </mxCell>
        <mxCell id="GProfhIi8R3kbPbWlugL-11" value="lavora" style="shape=rhombus;perimeter=rhombusPerimeter;whiteSpace=wrap;html=1;align=center;" parent="1" vertex="1">
          <mxGeometry x="240" y="440" width="120" height="60" as="geometry" />
        </mxCell>
        <mxCell id="GProfhIi8R3kbPbWlugL-12" value="situate" style="shape=rhombus;perimeter=rhombusPerimeter;whiteSpace=wrap;html=1;align=center;" parent="1" vertex="1">
          <mxGeometry x="160" y="300" width="120" height="60" as="geometry" />
        </mxCell>
        <mxCell id="GProfhIi8R3kbPbWlugL-13" value="operano" style="shape=rhombus;perimeter=rhombusPerimeter;whiteSpace=wrap;html=1;align=center;" parent="1" vertex="1">
          <mxGeometry x="40" y="760" width="120" height="60" as="geometry" />
        </mxCell>
        <mxCell id="GProfhIi8R3kbPbWlugL-14" value="usano" style="shape=rhombus;perimeter=rhombusPerimeter;whiteSpace=wrap;html=1;align=center;" parent="1" vertex="1">
          <mxGeometry x="200" y="760" width="120" height="60" as="geometry" />
        </mxCell>
        <mxCell id="GProfhIi8R3kbPbWlugL-15" value="partecipano" style="shape=rhombus;perimeter=rhombusPerimeter;whiteSpace=wrap;html=1;align=center;" parent="1" vertex="1">
          <mxGeometry x="800" y="600" width="120" height="60" as="geometry" />
        </mxCell>
        <mxCell id="GProfhIi8R3kbPbWlugL-16" value="fatte" style="shape=rhombus;perimeter=rhombusPerimeter;whiteSpace=wrap;html=1;align=center;" parent="1" vertex="1">
          <mxGeometry x="40" y="1080" width="120" height="60" as="geometry" />
        </mxCell>
        <mxCell id="GProfhIi8R3kbPbWlugL-17" value="fanno" style="shape=rhombus;perimeter=rhombusPerimeter;whiteSpace=wrap;html=1;align=center;" parent="1" vertex="1">
          <mxGeometry x="-120" y="760" width="120" height="60" as="geometry" />
        </mxCell>
        <mxCell id="GProfhIi8R3kbPbWlugL-18" value="curano" style="shape=rhombus;perimeter=rhombusPerimeter;whiteSpace=wrap;html=1;align=center;" parent="1" vertex="1">
          <mxGeometry x="440" y="920" width="120" height="60" as="geometry" />
        </mxCell>
        <mxCell id="GProfhIi8R3kbPbWlugL-19" value="scritta/letta" style="shape=rhombus;perimeter=rhombusPerimeter;whiteSpace=wrap;html=1;align=center;" parent="1" vertex="1">
          <mxGeometry x="400" y="600" width="120" height="60" as="geometry" />
        </mxCell>
        <mxCell id="GProfhIi8R3kbPbWlugL-20" value="posto" style="shape=rhombus;perimeter=rhombusPerimeter;whiteSpace=wrap;html=1;align=center;" parent="1" vertex="1">
          <mxGeometry x="1000" y="760" width="120" height="60" as="geometry" />
        </mxCell>
        <mxCell id="GProfhIi8R3kbPbWlugL-22" value="utilizzano" style="shape=rhombus;perimeter=rhombusPerimeter;whiteSpace=wrap;html=1;align=center;" parent="1" vertex="1">
          <mxGeometry x="-120" y="440" width="120" height="60" as="geometry" />
        </mxCell>
        <mxCell id="GProfhIi8R3kbPbWlugL-32" value="hanno" style="shape=rhombus;perimeter=rhombusPerimeter;whiteSpace=wrap;html=1;align=center;" parent="1" vertex="1">
          <mxGeometry x="600" y="750" width="120" height="60" as="geometry" />
        </mxCell>
        <mxCell id="GProfhIi8R3kbPbWlugL-53" value="situato" style="shape=rhombus;perimeter=rhombusPerimeter;whiteSpace=wrap;html=1;align=center;" parent="1" vertex="1">
          <mxGeometry x="1000" y="440" width="120" height="60" as="geometry" />
        </mxCell>
        <mxCell id="GProfhIi8R3kbPbWlugL-54" value="situato" style="shape=rhombus;perimeter=rhombusPerimeter;whiteSpace=wrap;html=1;align=center;" parent="1" vertex="1">
          <mxGeometry x="600" y="440" width="120" height="60" as="geometry" />
        </mxCell>
        <mxCell id="GProfhIi8R3kbPbWlugL-62" value="sottoposte" style="shape=rhombus;perimeter=rhombusPerimeter;whiteSpace=wrap;html=1;align=center;" parent="1" vertex="1">
          <mxGeometry x="440" y="1080" width="120" height="60" as="geometry" />
        </mxCell>
        <mxCell id="GProfhIi8R3kbPbWlugL-63" value="Relationship" style="shape=rhombus;perimeter=rhombusPerimeter;whiteSpace=wrap;html=1;align=center;" parent="1" vertex="1">
          <mxGeometry x="-120" y="1080" width="120" height="60" as="geometry" />
        </mxCell>
        <mxCell id="EqLmaS4XHGkuEMbsUwe7-9" value="" style="endArrow=none;html=1;rounded=0;" edge="1" parent="1">
          <mxGeometry width="50" height="50" relative="1" as="geometry">
            <mxPoint x="780" y="860" as="sourcePoint" />
            <mxPoint x="940" y="860" as="targetPoint" />
          </mxGeometry>
        </mxCell>
        <mxCell id="EqLmaS4XHGkuEMbsUwe7-10" value="" style="endArrow=none;html=1;rounded=0;" edge="1" parent="1">
          <mxGeometry width="50" height="50" relative="1" as="geometry">
            <mxPoint x="-60" y="600" as="sourcePoint" />
            <mxPoint x="-60" y="560" as="targetPoint" />
          </mxGeometry>
        </mxCell>
        <mxCell id="EqLmaS4XHGkuEMbsUwe7-11" value="" style="endArrow=none;html=1;rounded=0;" edge="1" parent="1">
          <mxGeometry width="50" height="50" relative="1" as="geometry">
            <mxPoint x="100" y="600" as="sourcePoint" />
            <mxPoint x="100" y="560" as="targetPoint" />
          </mxGeometry>
        </mxCell>
        <mxCell id="EqLmaS4XHGkuEMbsUwe7-12" value="" style="endArrow=none;html=1;rounded=0;" edge="1" parent="1">
          <mxGeometry width="50" height="50" relative="1" as="geometry">
            <mxPoint x="260" y="600" as="sourcePoint" />
            <mxPoint x="260" y="560" as="targetPoint" />
          </mxGeometry>
        </mxCell>
        <mxCell id="EqLmaS4XHGkuEMbsUwe7-13" value="" style="endArrow=none;html=1;rounded=0;" edge="1" parent="1">
          <mxGeometry width="50" height="50" relative="1" as="geometry">
            <mxPoint x="-60" y="560" as="sourcePoint" />
            <mxPoint x="260" y="560" as="targetPoint" />
          </mxGeometry>
        </mxCell>
        <mxCell id="EqLmaS4XHGkuEMbsUwe7-16" value="" style="endArrow=none;html=1;rounded=0;" edge="1" parent="1">
          <mxGeometry width="50" height="50" relative="1" as="geometry">
            <mxPoint x="-80" y="600" as="sourcePoint" />
            <mxPoint x="-80" y="540" as="targetPoint" />
          </mxGeometry>
        </mxCell>
        <mxCell id="EqLmaS4XHGkuEMbsUwe7-17" value="" style="endArrow=none;html=1;rounded=0;" edge="1" parent="1">
          <mxGeometry width="50" height="50" relative="1" as="geometry">
            <mxPoint x="-80" y="540" as="sourcePoint" />
            <mxPoint x="-60" y="540" as="targetPoint" />
          </mxGeometry>
        </mxCell>
        <mxCell id="EqLmaS4XHGkuEMbsUwe7-18" value="" style="endArrow=none;html=1;rounded=0;entryX=0.5;entryY=1;entryDx=0;entryDy=0;" edge="1" parent="1" target="GProfhIi8R3kbPbWlugL-22">
          <mxGeometry width="50" height="50" relative="1" as="geometry">
            <mxPoint x="-60" y="540" as="sourcePoint" />
            <mxPoint x="-10" y="490" as="targetPoint" />
          </mxGeometry>
        </mxCell>
        <mxCell id="EqLmaS4XHGkuEMbsUwe7-19" value="" style="endArrow=none;html=1;rounded=0;entryX=0.5;entryY=1;entryDx=0;entryDy=0;" edge="1" parent="1" target="Gjo6DUxktxaH3FMSYRhE-14">
          <mxGeometry width="50" height="50" relative="1" as="geometry">
            <mxPoint x="-60" y="440" as="sourcePoint" />
            <mxPoint x="-10" y="390" as="targetPoint" />
          </mxGeometry>
        </mxCell>
        <mxCell id="EqLmaS4XHGkuEMbsUwe7-20" value="" style="endArrow=none;html=1;rounded=0;entryX=0;entryY=0.5;entryDx=0;entryDy=0;" edge="1" parent="1" target="GProfhIi8R3kbPbWlugL-12">
          <mxGeometry width="50" height="50" relative="1" as="geometry">
            <mxPoint y="330" as="sourcePoint" />
            <mxPoint x="50" y="280" as="targetPoint" />
          </mxGeometry>
        </mxCell>
        <mxCell id="EqLmaS4XHGkuEMbsUwe7-21" value="" style="endArrow=none;html=1;rounded=0;entryX=0;entryY=0.5;entryDx=0;entryDy=0;" edge="1" parent="1" target="Gjo6DUxktxaH3FMSYRhE-8">
          <mxGeometry width="50" height="50" relative="1" as="geometry">
            <mxPoint x="280" y="330" as="sourcePoint" />
            <mxPoint x="330" y="280" as="targetPoint" />
          </mxGeometry>
        </mxCell>
        <mxCell id="EqLmaS4XHGkuEMbsUwe7-22" value="" style="endArrow=none;html=1;rounded=0;entryX=0;entryY=0.5;entryDx=0;entryDy=0;" edge="1" parent="1" target="GProfhIi8R3kbPbWlugL-11">
          <mxGeometry width="50" height="50" relative="1" as="geometry">
            <mxPoint x="160" y="470" as="sourcePoint" />
            <mxPoint x="210" y="420" as="targetPoint" />
          </mxGeometry>
        </mxCell>
        <mxCell id="EqLmaS4XHGkuEMbsUwe7-23" value="" style="endArrow=none;html=1;rounded=0;" edge="1" parent="1">
          <mxGeometry width="50" height="50" relative="1" as="geometry">
            <mxPoint x="360" y="470" as="sourcePoint" />
            <mxPoint x="500" y="470" as="targetPoint" />
          </mxGeometry>
        </mxCell>
        <mxCell id="EqLmaS4XHGkuEMbsUwe7-24" value="" style="endArrow=none;html=1;rounded=0;entryX=0.5;entryY=1;entryDx=0;entryDy=0;" edge="1" parent="1" target="Gjo6DUxktxaH3FMSYRhE-8">
          <mxGeometry width="50" height="50" relative="1" as="geometry">
            <mxPoint x="500" y="470" as="sourcePoint" />
            <mxPoint x="550" y="420" as="targetPoint" />
          </mxGeometry>
        </mxCell>
        <mxCell id="EqLmaS4XHGkuEMbsUwe7-25" value="" style="endArrow=none;html=1;rounded=0;" edge="1" parent="1">
          <mxGeometry width="50" height="50" relative="1" as="geometry">
            <mxPoint x="660" y="440" as="sourcePoint" />
            <mxPoint x="660" y="340" as="targetPoint" />
          </mxGeometry>
        </mxCell>
        <mxCell id="EqLmaS4XHGkuEMbsUwe7-27" value="" style="endArrow=none;html=1;rounded=0;entryX=0;entryY=0.5;entryDx=0;entryDy=0;" edge="1" parent="1" target="Gjo6DUxktxaH3FMSYRhE-18">
          <mxGeometry width="50" height="50" relative="1" as="geometry">
            <mxPoint x="720" y="470" as="sourcePoint" />
            <mxPoint x="770" y="420" as="targetPoint" />
          </mxGeometry>
        </mxCell>
        <mxCell id="EqLmaS4XHGkuEMbsUwe7-28" value="" style="endArrow=none;html=1;rounded=0;" edge="1" parent="1">
          <mxGeometry width="50" height="50" relative="1" as="geometry">
            <mxPoint x="560" y="340" as="sourcePoint" />
            <mxPoint x="660" y="340" as="targetPoint" />
          </mxGeometry>
        </mxCell>
        <mxCell id="EqLmaS4XHGkuEMbsUwe7-29" value="" style="endArrow=none;html=1;rounded=0;" edge="1" parent="1">
          <mxGeometry width="50" height="50" relative="1" as="geometry">
            <mxPoint x="560" y="320" as="sourcePoint" />
            <mxPoint x="1060" y="320" as="targetPoint" />
          </mxGeometry>
        </mxCell>
        <mxCell id="EqLmaS4XHGkuEMbsUwe7-30" value="" style="endArrow=none;html=1;rounded=0;" edge="1" parent="1">
          <mxGeometry width="50" height="50" relative="1" as="geometry">
            <mxPoint x="1060" y="440" as="sourcePoint" />
            <mxPoint x="1060" y="320" as="targetPoint" />
          </mxGeometry>
        </mxCell>
        <mxCell id="EqLmaS4XHGkuEMbsUwe7-31" value="" style="endArrow=none;html=1;rounded=0;exitX=0.5;exitY=0;exitDx=0;exitDy=0;" edge="1" parent="1" source="Gjo6DUxktxaH3FMSYRhE-10">
          <mxGeometry width="50" height="50" relative="1" as="geometry">
            <mxPoint x="1010" y="550" as="sourcePoint" />
            <mxPoint x="1060" y="500" as="targetPoint" />
          </mxGeometry>
        </mxCell>
        <mxCell id="EqLmaS4XHGkuEMbsUwe7-32" value="" style="endArrow=none;html=1;rounded=0;entryX=0;entryY=0.5;entryDx=0;entryDy=0;" edge="1" parent="1" target="GProfhIi8R3kbPbWlugL-20">
          <mxGeometry width="50" height="50" relative="1" as="geometry">
            <mxPoint x="920" y="790" as="sourcePoint" />
            <mxPoint x="970" y="740" as="targetPoint" />
          </mxGeometry>
        </mxCell>
        <mxCell id="EqLmaS4XHGkuEMbsUwe7-33" value="" style="endArrow=none;html=1;rounded=0;entryX=0.5;entryY=1;entryDx=0;entryDy=0;" edge="1" parent="1" target="Gjo6DUxktxaH3FMSYRhE-10">
          <mxGeometry width="50" height="50" relative="1" as="geometry">
            <mxPoint x="1060" y="760" as="sourcePoint" />
            <mxPoint x="1110" y="710" as="targetPoint" />
          </mxGeometry>
        </mxCell>
        <mxCell id="EqLmaS4XHGkuEMbsUwe7-34" value="" style="endArrow=none;html=1;rounded=0;entryX=0.5;entryY=1;entryDx=0;entryDy=0;" edge="1" parent="1" target="GProfhIi8R3kbPbWlugL-15">
          <mxGeometry width="50" height="50" relative="1" as="geometry">
            <mxPoint x="860" y="760" as="sourcePoint" />
            <mxPoint x="910" y="710" as="targetPoint" />
          </mxGeometry>
        </mxCell>
        <mxCell id="EqLmaS4XHGkuEMbsUwe7-35" value="" style="endArrow=none;html=1;rounded=0;entryX=0.5;entryY=1;entryDx=0;entryDy=0;" edge="1" parent="1" target="Gjo6DUxktxaH3FMSYRhE-18">
          <mxGeometry width="50" height="50" relative="1" as="geometry">
            <mxPoint x="860" y="600" as="sourcePoint" />
            <mxPoint x="910" y="550" as="targetPoint" />
          </mxGeometry>
        </mxCell>
        <mxCell id="EqLmaS4XHGkuEMbsUwe7-36" value="" style="endArrow=none;html=1;rounded=0;entryX=0;entryY=0.5;entryDx=0;entryDy=0;" edge="1" parent="1" target="GProfhIi8R3kbPbWlugL-19">
          <mxGeometry width="50" height="50" relative="1" as="geometry">
            <mxPoint x="320" y="630" as="sourcePoint" />
            <mxPoint x="370" y="580" as="targetPoint" />
          </mxGeometry>
        </mxCell>
        <mxCell id="EqLmaS4XHGkuEMbsUwe7-37" value="" style="endArrow=none;html=1;rounded=0;entryX=0;entryY=0.5;entryDx=0;entryDy=0;" edge="1" parent="1" target="Gjo6DUxktxaH3FMSYRhE-17">
          <mxGeometry width="50" height="50" relative="1" as="geometry">
            <mxPoint x="520" y="630" as="sourcePoint" />
            <mxPoint x="570" y="580" as="targetPoint" />
          </mxGeometry>
        </mxCell>
        <mxCell id="EqLmaS4XHGkuEMbsUwe7-38" value="" style="endArrow=none;html=1;rounded=0;entryX=0.5;entryY=1;entryDx=0;entryDy=0;" edge="1" parent="1" target="Gjo6DUxktxaH3FMSYRhE-17">
          <mxGeometry width="50" height="50" relative="1" as="geometry">
            <mxPoint x="660" y="750" as="sourcePoint" />
            <mxPoint x="710" y="710" as="targetPoint" />
          </mxGeometry>
        </mxCell>
        <mxCell id="EqLmaS4XHGkuEMbsUwe7-40" value="" style="endArrow=none;html=1;rounded=0;" edge="1" parent="1">
          <mxGeometry width="50" height="50" relative="1" as="geometry">
            <mxPoint x="740" y="790" as="sourcePoint" />
            <mxPoint x="800" y="790" as="targetPoint" />
          </mxGeometry>
        </mxCell>
        <mxCell id="EqLmaS4XHGkuEMbsUwe7-41" value="" style="endArrow=none;html=1;rounded=0;" edge="1" parent="1">
          <mxGeometry width="50" height="50" relative="1" as="geometry">
            <mxPoint x="740" y="770" as="sourcePoint" />
            <mxPoint x="800" y="770" as="targetPoint" />
          </mxGeometry>
        </mxCell>
        <mxCell id="EqLmaS4XHGkuEMbsUwe7-42" value="" style="endArrow=none;html=1;rounded=0;" edge="1" parent="1">
          <mxGeometry width="50" height="50" relative="1" as="geometry">
            <mxPoint x="740" y="810" as="sourcePoint" />
            <mxPoint x="800" y="810" as="targetPoint" />
          </mxGeometry>
        </mxCell>
        <mxCell id="EqLmaS4XHGkuEMbsUwe7-44" value="" style="endArrow=none;html=1;rounded=0;" edge="1" parent="1">
          <mxGeometry width="50" height="50" relative="1" as="geometry">
            <mxPoint x="660" y="830" as="sourcePoint" />
            <mxPoint x="740" y="790" as="targetPoint" />
          </mxGeometry>
        </mxCell>
        <mxCell id="EqLmaS4XHGkuEMbsUwe7-46" value="" style="endArrow=none;html=1;rounded=0;entryX=1;entryY=0.5;entryDx=0;entryDy=0;" edge="1" parent="1">
          <mxGeometry width="50" height="50" relative="1" as="geometry">
            <mxPoint x="680" y="800" as="sourcePoint" />
            <mxPoint x="740" y="770" as="targetPoint" />
          </mxGeometry>
        </mxCell>
        <mxCell id="EqLmaS4XHGkuEMbsUwe7-47" value="" style="endArrow=none;html=1;rounded=0;" edge="1" parent="1">
          <mxGeometry width="50" height="50" relative="1" as="geometry">
            <mxPoint x="680" y="840" as="sourcePoint" />
            <mxPoint x="740" y="810" as="targetPoint" />
          </mxGeometry>
        </mxCell>
        <mxCell id="EqLmaS4XHGkuEMbsUwe7-48" value="" style="endArrow=none;html=1;rounded=0;" edge="1" parent="1">
          <mxGeometry width="50" height="50" relative="1" as="geometry">
            <mxPoint x="680" y="1110" as="sourcePoint" />
            <mxPoint x="680" y="840" as="targetPoint" />
          </mxGeometry>
        </mxCell>
        <mxCell id="EqLmaS4XHGkuEMbsUwe7-49" value="" style="endArrow=none;html=1;rounded=0;" edge="1" parent="1">
          <mxGeometry width="50" height="50" relative="1" as="geometry">
            <mxPoint x="660" y="950" as="sourcePoint" />
            <mxPoint x="660" y="830" as="targetPoint" />
          </mxGeometry>
        </mxCell>
        <mxCell id="EqLmaS4XHGkuEMbsUwe7-51" value="" style="endArrow=none;html=1;rounded=0;" edge="1" parent="1">
          <mxGeometry width="50" height="50" relative="1" as="geometry">
            <mxPoint x="560" y="950" as="sourcePoint" />
            <mxPoint x="660" y="950" as="targetPoint" />
          </mxGeometry>
        </mxCell>
        <mxCell id="EqLmaS4XHGkuEMbsUwe7-52" value="" style="endArrow=none;html=1;rounded=0;" edge="1" parent="1">
          <mxGeometry width="50" height="50" relative="1" as="geometry">
            <mxPoint x="560" y="1110" as="sourcePoint" />
            <mxPoint x="680" y="1110" as="targetPoint" />
          </mxGeometry>
        </mxCell>
        <mxCell id="EqLmaS4XHGkuEMbsUwe7-54" value="" style="endArrow=none;html=1;rounded=0;entryX=0;entryY=0.5;entryDx=0;entryDy=0;" edge="1" parent="1" target="GProfhIi8R3kbPbWlugL-18">
          <mxGeometry width="50" height="50" relative="1" as="geometry">
            <mxPoint x="320" y="950" as="sourcePoint" />
            <mxPoint x="370" y="900" as="targetPoint" />
          </mxGeometry>
        </mxCell>
        <mxCell id="EqLmaS4XHGkuEMbsUwe7-55" value="" style="endArrow=none;html=1;rounded=0;entryX=0;entryY=0.5;entryDx=0;entryDy=0;" edge="1" parent="1" target="GProfhIi8R3kbPbWlugL-62">
          <mxGeometry width="50" height="50" relative="1" as="geometry">
            <mxPoint x="320" y="1110" as="sourcePoint" />
            <mxPoint x="370" y="1060" as="targetPoint" />
          </mxGeometry>
        </mxCell>
        <mxCell id="EqLmaS4XHGkuEMbsUwe7-58" value="" style="endArrow=none;html=1;rounded=0;exitX=0.5;exitY=0;exitDx=0;exitDy=0;entryX=0.5;entryY=1;entryDx=0;entryDy=0;" edge="1" parent="1" source="GProfhIi8R3kbPbWlugL-17" target="Gjo6DUxktxaH3FMSYRhE-2">
          <mxGeometry width="50" height="50" relative="1" as="geometry">
            <mxPoint x="-100" y="710" as="sourcePoint" />
            <mxPoint x="-50" y="660" as="targetPoint" />
          </mxGeometry>
        </mxCell>
        <mxCell id="EqLmaS4XHGkuEMbsUwe7-60" value="" style="endArrow=none;html=1;rounded=0;entryX=0;entryY=0.5;entryDx=0;entryDy=0;" edge="1" parent="1" target="Gjo6DUxktxaH3FMSYRhE-12">
          <mxGeometry width="50" height="50" relative="1" as="geometry">
            <mxPoint x="160" y="1110" as="sourcePoint" />
            <mxPoint x="210" y="1060" as="targetPoint" />
          </mxGeometry>
        </mxCell>
        <mxCell id="EqLmaS4XHGkuEMbsUwe7-61" value="" style="endArrow=none;html=1;rounded=0;entryX=0.5;entryY=1;entryDx=0;entryDy=0;" edge="1" parent="1" target="GProfhIi8R3kbPbWlugL-17">
          <mxGeometry width="50" height="50" relative="1" as="geometry">
            <mxPoint x="-60" y="920" as="sourcePoint" />
            <mxPoint x="-10" y="870" as="targetPoint" />
          </mxGeometry>
        </mxCell>
        <mxCell id="EqLmaS4XHGkuEMbsUwe7-62" value="" style="endArrow=none;html=1;rounded=0;entryX=0.5;entryY=1;entryDx=0;entryDy=0;" edge="1" parent="1" target="Gjo6DUxktxaH3FMSYRhE-3">
          <mxGeometry width="50" height="50" relative="1" as="geometry">
            <mxPoint x="100" y="760" as="sourcePoint" />
            <mxPoint x="150" y="710" as="targetPoint" />
          </mxGeometry>
        </mxCell>
        <mxCell id="EqLmaS4XHGkuEMbsUwe7-63" value="" style="endArrow=none;html=1;rounded=0;entryX=0.5;entryY=1;entryDx=0;entryDy=0;" edge="1" parent="1" target="GProfhIi8R3kbPbWlugL-13">
          <mxGeometry width="50" height="50" relative="1" as="geometry">
            <mxPoint x="100" y="920" as="sourcePoint" />
            <mxPoint x="150" y="870" as="targetPoint" />
          </mxGeometry>
        </mxCell>
        <mxCell id="EqLmaS4XHGkuEMbsUwe7-64" value="" style="endArrow=none;html=1;rounded=0;entryX=0.5;entryY=1;entryDx=0;entryDy=0;" edge="1" parent="1" target="Gjo6DUxktxaH3FMSYRhE-4">
          <mxGeometry width="50" height="50" relative="1" as="geometry">
            <mxPoint x="260" y="760" as="sourcePoint" />
            <mxPoint x="310" y="710" as="targetPoint" />
          </mxGeometry>
        </mxCell>
        <mxCell id="EqLmaS4XHGkuEMbsUwe7-65" value="" style="endArrow=none;html=1;rounded=0;exitX=0.5;exitY=0;exitDx=0;exitDy=0;" edge="1" parent="1" source="Gjo6DUxktxaH3FMSYRhE-15">
          <mxGeometry width="50" height="50" relative="1" as="geometry">
            <mxPoint x="210" y="870" as="sourcePoint" />
            <mxPoint x="260" y="820" as="targetPoint" />
          </mxGeometry>
        </mxCell>
        <mxCell id="EqLmaS4XHGkuEMbsUwe7-66" value="" style="endArrow=none;html=1;rounded=0;exitX=0.5;exitY=0;exitDx=0;exitDy=0;" edge="1" parent="1" source="GProfhIi8R3kbPbWlugL-63">
          <mxGeometry width="50" height="50" relative="1" as="geometry">
            <mxPoint x="-110" y="1030" as="sourcePoint" />
            <mxPoint x="-60" y="980" as="targetPoint" />
          </mxGeometry>
        </mxCell>
        <mxCell id="EqLmaS4XHGkuEMbsUwe7-67" value="" style="endArrow=none;html=1;rounded=0;exitX=0.5;exitY=0;exitDx=0;exitDy=0;" edge="1" parent="1" source="GProfhIi8R3kbPbWlugL-16">
          <mxGeometry width="50" height="50" relative="1" as="geometry">
            <mxPoint x="50" y="1030" as="sourcePoint" />
            <mxPoint x="100" y="980" as="targetPoint" />
          </mxGeometry>
        </mxCell>
        <mxCell id="EqLmaS4XHGkuEMbsUwe7-68" value="" style="endArrow=none;html=1;rounded=0;" edge="1" parent="1">
          <mxGeometry width="50" height="50" relative="1" as="geometry">
            <mxPoint x="920" y="810" as="sourcePoint" />
            <mxPoint x="990" y="810" as="targetPoint" />
          </mxGeometry>
        </mxCell>
        <mxCell id="EqLmaS4XHGkuEMbsUwe7-69" value="" style="endArrow=none;html=1;rounded=0;" edge="1" parent="1">
          <mxGeometry width="50" height="50" relative="1" as="geometry">
            <mxPoint x="990" y="810" as="sourcePoint" />
            <mxPoint x="1060" y="840" as="targetPoint" />
          </mxGeometry>
        </mxCell>
        <mxCell id="EqLmaS4XHGkuEMbsUwe7-70" value="" style="endArrow=none;html=1;rounded=0;" edge="1" parent="1">
          <mxGeometry width="50" height="50" relative="1" as="geometry">
            <mxPoint x="1060" y="1170" as="sourcePoint" />
            <mxPoint x="1060" y="840" as="targetPoint" />
          </mxGeometry>
        </mxCell>
        <mxCell id="EqLmaS4XHGkuEMbsUwe7-73" value="" style="endArrow=none;html=1;rounded=0;" edge="1" parent="1">
          <mxGeometry width="50" height="50" relative="1" as="geometry">
            <mxPoint x="-60" y="1170" as="sourcePoint" />
            <mxPoint x="-60" y="1140" as="targetPoint" />
          </mxGeometry>
        </mxCell>
        <mxCell id="EqLmaS4XHGkuEMbsUwe7-74" value="" style="endArrow=none;html=1;rounded=0;" edge="1" parent="1">
          <mxGeometry width="50" height="50" relative="1" as="geometry">
            <mxPoint x="-60" y="1169" as="sourcePoint" />
            <mxPoint x="1060" y="1169" as="targetPoint" />
          </mxGeometry>
        </mxCell>
        <mxCell id="EqLmaS4XHGkuEMbsUwe7-75" value="nome" style="text;html=1;align=center;verticalAlign=middle;resizable=0;points=[];autosize=1;strokeColor=none;fillColor=none;" vertex="1" parent="1">
          <mxGeometry x="-15" y="400" width="50" height="30" as="geometry" />
        </mxCell>
        <mxCell id="EqLmaS4XHGkuEMbsUwe7-76" value="cognome" style="text;html=1;align=center;verticalAlign=middle;resizable=0;points=[];autosize=1;strokeColor=none;fillColor=none;" vertex="1" parent="1">
          <mxGeometry x="25" y="378" width="70" height="30" as="geometry" />
        </mxCell>
        <mxCell id="EqLmaS4XHGkuEMbsUwe7-77" value="id camera" style="text;html=1;align=center;verticalAlign=middle;resizable=0;points=[];autosize=1;strokeColor=none;fillColor=none;" vertex="1" parent="1">
          <mxGeometry x="1065" y="540" width="80" height="30" as="geometry" />
        </mxCell>
        <mxCell id="EqLmaS4XHGkuEMbsUwe7-78" value="num letti" style="text;html=1;align=center;verticalAlign=middle;resizable=0;points=[];autosize=1;strokeColor=none;fillColor=none;" vertex="1" parent="1">
          <mxGeometry x="1065" y="688" width="70" height="30" as="geometry" />
        </mxCell>
        <mxCell id="EqLmaS4XHGkuEMbsUwe7-79" value="nome" style="text;html=1;align=center;verticalAlign=middle;resizable=0;points=[];autosize=1;strokeColor=none;fillColor=none;" vertex="1" parent="1">
          <mxGeometry x="760" y="708" width="50" height="30" as="geometry" />
        </mxCell>
        <mxCell id="EqLmaS4XHGkuEMbsUwe7-80" value="cognome" style="text;html=1;align=center;verticalAlign=middle;resizable=0;points=[];autosize=1;strokeColor=none;fillColor=none;" vertex="1" parent="1">
          <mxGeometry x="799" y="696" width="70" height="30" as="geometry" />
        </mxCell>
        <mxCell id="EqLmaS4XHGkuEMbsUwe7-81" value="data&amp;nbsp;&lt;div&gt;nascita&lt;/div&gt;" style="text;html=1;align=center;verticalAlign=middle;resizable=0;points=[];autosize=1;strokeColor=none;fillColor=none;" vertex="1" parent="1">
          <mxGeometry x="895" y="680" width="60" height="40" as="geometry" />
        </mxCell>
        <mxCell id="EqLmaS4XHGkuEMbsUwe7-82" value="comune&amp;nbsp;&lt;div&gt;nascita&lt;/div&gt;" style="text;html=1;align=center;verticalAlign=middle;resizable=0;points=[];autosize=1;strokeColor=none;fillColor=none;" vertex="1" parent="1">
          <mxGeometry x="945" y="730" width="70" height="40" as="geometry" />
        </mxCell>
        <mxCell id="EqLmaS4XHGkuEMbsUwe7-83" value="sesso" style="text;html=1;align=center;verticalAlign=middle;resizable=0;points=[];autosize=1;strokeColor=none;fillColor=none;" vertex="1" parent="1">
          <mxGeometry x="720" y="730" width="50" height="30" as="geometry" />
        </mxCell>
        <mxCell id="EqLmaS4XHGkuEMbsUwe7-87" value="c.f." style="text;html=1;align=center;verticalAlign=middle;resizable=0;points=[];autosize=1;strokeColor=none;fillColor=none;" vertex="1" parent="1">
          <mxGeometry x="855" y="708" width="40" height="30" as="geometry" />
        </mxCell>
        <mxCell id="EqLmaS4XHGkuEMbsUwe7-88" value="n. operazione" style="text;html=1;align=center;verticalAlign=middle;resizable=0;points=[];autosize=1;strokeColor=none;fillColor=none;" vertex="1" parent="1">
          <mxGeometry x="240" y="1140" width="100" height="30" as="geometry" />
        </mxCell>
        <mxCell id="EqLmaS4XHGkuEMbsUwe7-89" value="badge&amp;nbsp;&lt;div&gt;chilurgo&lt;/div&gt;" style="text;html=1;align=center;verticalAlign=middle;resizable=0;points=[];autosize=1;strokeColor=none;fillColor=none;" vertex="1" parent="1">
          <mxGeometry x="165" y="1042" width="70" height="40" as="geometry" />
        </mxCell>
        <mxCell id="EqLmaS4XHGkuEMbsUwe7-90" value="data" style="text;html=1;align=center;verticalAlign=middle;resizable=0;points=[];autosize=1;strokeColor=none;fillColor=none;" vertex="1" parent="1">
          <mxGeometry x="344" y="1070" width="50" height="30" as="geometry" />
        </mxCell>
        <mxCell id="EqLmaS4XHGkuEMbsUwe7-91" value="ora&lt;div&gt;&amp;nbsp;decesso&lt;/div&gt;" style="text;html=1;align=center;verticalAlign=middle;resizable=0;points=[];autosize=1;strokeColor=none;fillColor=none;" vertex="1" parent="1">
          <mxGeometry x="347" y="1115" width="70" height="40" as="geometry" />
        </mxCell>
        <mxCell id="EqLmaS4XHGkuEMbsUwe7-92" value="nome" style="text;html=1;align=center;verticalAlign=middle;resizable=0;points=[];autosize=1;strokeColor=none;fillColor=none;" vertex="1" parent="1">
          <mxGeometry x="265" y="856" width="50" height="30" as="geometry" />
        </mxCell>
        <mxCell id="EqLmaS4XHGkuEMbsUwe7-93" value="effetti" style="text;html=1;align=center;verticalAlign=middle;resizable=0;points=[];autosize=1;strokeColor=none;fillColor=none;" vertex="1" parent="1">
          <mxGeometry x="200" y="1000" width="50" height="30" as="geometry" />
        </mxCell>
        <mxCell id="EqLmaS4XHGkuEMbsUwe7-94" value="controindicazioni" style="text;html=1;align=center;verticalAlign=middle;resizable=0;points=[];autosize=1;strokeColor=none;fillColor=none;" vertex="1" parent="1">
          <mxGeometry x="270" y="1005" width="110" height="30" as="geometry" />
        </mxCell>
        <mxCell id="EqLmaS4XHGkuEMbsUwe7-95" value="dosaggio" style="text;html=1;align=center;verticalAlign=middle;resizable=0;points=[];autosize=1;strokeColor=none;fillColor=none;" vertex="1" parent="1">
          <mxGeometry x="190" y="860" width="70" height="30" as="geometry" />
        </mxCell>
        <mxCell id="EqLmaS4XHGkuEMbsUwe7-96" value="primario" style="text;html=1;align=center;verticalAlign=middle;resizable=0;points=[];autosize=1;strokeColor=none;fillColor=none;" vertex="1" parent="1">
          <mxGeometry x="140" y="386" width="70" height="30" as="geometry" />
        </mxCell>
        <mxCell id="EqLmaS4XHGkuEMbsUwe7-97" value="salario" style="text;html=1;align=center;verticalAlign=middle;resizable=0;points=[];autosize=1;strokeColor=none;fillColor=none;" vertex="1" parent="1">
          <mxGeometry x="80" y="390" width="60" height="30" as="geometry" />
        </mxCell>
        <mxCell id="EqLmaS4XHGkuEMbsUwe7-98" value="nome&lt;div&gt;attrezzatura&lt;/div&gt;" style="text;html=1;align=center;verticalAlign=middle;resizable=0;points=[];autosize=1;strokeColor=none;fillColor=none;" vertex="1" parent="1">
          <mxGeometry x="-145" y="230" width="90" height="40" as="geometry" />
        </mxCell>
        <mxCell id="EqLmaS4XHGkuEMbsUwe7-99" value="pericolosità" style="text;html=1;align=center;verticalAlign=middle;resizable=0;points=[];autosize=1;strokeColor=none;fillColor=none;" vertex="1" parent="1">
          <mxGeometry x="-45" y="240" width="80" height="30" as="geometry" />
        </mxCell>
        <mxCell id="EqLmaS4XHGkuEMbsUwe7-101" value="nome" style="text;html=1;align=center;verticalAlign=middle;resizable=0;points=[];autosize=1;strokeColor=none;fillColor=none;" vertex="1" parent="1">
          <mxGeometry x="435" y="249" width="50" height="30" as="geometry" />
        </mxCell>
        <mxCell id="EqLmaS4XHGkuEMbsUwe7-102" value="piano" style="text;html=1;align=center;verticalAlign=middle;resizable=0;points=[];autosize=1;strokeColor=none;fillColor=none;" vertex="1" parent="1">
          <mxGeometry x="510" y="249" width="50" height="30" as="geometry" />
        </mxCell>
        <mxCell id="EqLmaS4XHGkuEMbsUwe7-103" value="id.programma" style="text;html=1;align=center;verticalAlign=middle;resizable=0;points=[];autosize=1;strokeColor=none;fillColor=none;" vertex="1" parent="1">
          <mxGeometry x="685" y="400" width="100" height="30" as="geometry" />
        </mxCell>
        <mxCell id="EqLmaS4XHGkuEMbsUwe7-105" value="frequenza" style="text;html=1;align=center;verticalAlign=middle;resizable=0;points=[];autosize=1;strokeColor=none;fillColor=none;" vertex="1" parent="1">
          <mxGeometry x="880" y="386" width="80" height="30" as="geometry" />
        </mxCell>
        <mxCell id="EqLmaS4XHGkuEMbsUwe7-106" value="ambito" style="text;html=1;align=center;verticalAlign=middle;resizable=0;points=[];autosize=1;strokeColor=none;fillColor=none;" vertex="1" parent="1">
          <mxGeometry x="820" y="386" width="60" height="30" as="geometry" />
        </mxCell>
        <mxCell id="EqLmaS4XHGkuEMbsUwe7-107" value="id. cartella" style="text;html=1;align=center;verticalAlign=middle;resizable=0;points=[];autosize=1;strokeColor=none;fillColor=none;" vertex="1" parent="1">
          <mxGeometry x="495" y="570" width="80" height="30" as="geometry" />
        </mxCell>
        <mxCell id="EqLmaS4XHGkuEMbsUwe7-108" value="allergie" style="text;html=1;align=center;verticalAlign=middle;resizable=0;points=[];autosize=1;strokeColor=none;fillColor=none;" vertex="1" parent="1">
          <mxGeometry x="580" y="540" width="60" height="30" as="geometry" />
        </mxCell>
        <mxCell id="EqLmaS4XHGkuEMbsUwe7-109" value="patologie" style="text;html=1;align=center;verticalAlign=middle;resizable=0;points=[];autosize=1;strokeColor=none;fillColor=none;" vertex="1" parent="1">
          <mxGeometry x="660" y="678" width="70" height="30" as="geometry" />
        </mxCell>
        <mxCell id="EqLmaS4XHGkuEMbsUwe7-110" value="paziente&lt;div&gt;debole&lt;/div&gt;" style="text;html=1;align=center;verticalAlign=middle;resizable=0;points=[];autosize=1;strokeColor=none;fillColor=none;" vertex="1" parent="1">
          <mxGeometry x="655" y="535" width="70" height="40" as="geometry" />
        </mxCell>
        <mxCell id="EqLmaS4XHGkuEMbsUwe7-111" value="gruppo&lt;div&gt;&amp;nbsp;sanguigno&amp;nbsp;&lt;/div&gt;" style="text;html=1;align=center;verticalAlign=middle;resizable=0;points=[];autosize=1;strokeColor=none;fillColor=none;" vertex="1" parent="1">
          <mxGeometry x="720" y="560" width="90" height="40" as="geometry" />
        </mxCell>
        <mxCell id="EqLmaS4XHGkuEMbsUwe7-112" value="data" style="text;html=1;align=center;verticalAlign=middle;resizable=0;points=[];autosize=1;strokeColor=none;fillColor=none;" vertex="1" parent="1">
          <mxGeometry x="-125" y="885" width="50" height="30" as="geometry" />
        </mxCell>
        <mxCell id="EqLmaS4XHGkuEMbsUwe7-113" value="priorita" style="text;html=1;align=center;verticalAlign=middle;resizable=0;points=[];autosize=1;strokeColor=none;fillColor=none;" vertex="1" parent="1">
          <mxGeometry x="-130" y="995" width="60" height="30" as="geometry" />
        </mxCell>
        <mxCell id="EqLmaS4XHGkuEMbsUwe7-114" value="id" style="text;html=1;align=center;verticalAlign=middle;resizable=0;points=[];autosize=1;strokeColor=none;fillColor=none;" vertex="1" parent="1">
          <mxGeometry x="130" y="865" width="30" height="30" as="geometry" />
        </mxCell>
        <mxCell id="EqLmaS4XHGkuEMbsUwe7-115" value="livello&lt;div&gt;&amp;nbsp;attrezzatura&lt;/div&gt;" style="text;html=1;align=center;verticalAlign=middle;resizable=0;points=[];autosize=1;strokeColor=none;fillColor=none;" vertex="1" parent="1">
          <mxGeometry x="17" y="995" width="90" height="40" as="geometry" />
        </mxCell>
        <mxCell id="EqLmaS4XHGkuEMbsUwe7-116" value="max&amp;nbsp;&lt;div&gt;persone&lt;/div&gt;" style="text;html=1;align=center;verticalAlign=middle;resizable=0;points=[];autosize=1;strokeColor=none;fillColor=none;" vertex="1" parent="1">
          <mxGeometry x="27" y="853" width="70" height="40" as="geometry" />
        </mxCell>
        <mxCell id="EqLmaS4XHGkuEMbsUwe7-117" value="data nascita" style="text;html=1;align=center;verticalAlign=middle;resizable=0;points=[];autosize=1;strokeColor=none;fillColor=none;" vertex="1" parent="1">
          <mxGeometry x="175" y="420" width="90" height="30" as="geometry" />
        </mxCell>
        <mxCell id="EqLmaS4XHGkuEMbsUwe7-119" value="" style="ellipse;whiteSpace=wrap;html=1;aspect=fixed;" vertex="1" parent="1">
          <mxGeometry x="15" y="422" width="10" height="10" as="geometry" />
        </mxCell>
        <mxCell id="EqLmaS4XHGkuEMbsUwe7-120" value="" style="ellipse;whiteSpace=wrap;html=1;aspect=fixed;" vertex="1" parent="1">
          <mxGeometry x="55" y="402" width="10" height="10" as="geometry" />
        </mxCell>
        <mxCell id="EqLmaS4XHGkuEMbsUwe7-123" value="" style="ellipse;whiteSpace=wrap;html=1;aspect=fixed;" vertex="1" parent="1">
          <mxGeometry x="105" y="412" width="10" height="10" as="geometry" />
        </mxCell>
        <mxCell id="EqLmaS4XHGkuEMbsUwe7-124" value="" style="ellipse;whiteSpace=wrap;html=1;aspect=fixed;" vertex="1" parent="1">
          <mxGeometry x="165" y="408" width="10" height="10" as="geometry" />
        </mxCell>
        <mxCell id="EqLmaS4XHGkuEMbsUwe7-125" value="" style="ellipse;whiteSpace=wrap;html=1;aspect=fixed;" vertex="1" parent="1">
          <mxGeometry x="200" y="440" width="10" height="10" as="geometry" />
        </mxCell>
        <mxCell id="EqLmaS4XHGkuEMbsUwe7-126" value="badge" style="text;html=1;align=center;verticalAlign=middle;resizable=0;points=[];autosize=1;strokeColor=none;fillColor=none;" vertex="1" parent="1">
          <mxGeometry x="175" y="468" width="60" height="30" as="geometry" />
        </mxCell>
        <mxCell id="EqLmaS4XHGkuEMbsUwe7-127" value="" style="ellipse;whiteSpace=wrap;html=1;aspect=fixed;" vertex="1" parent="1">
          <mxGeometry x="181" y="488" width="10" height="10" as="geometry" />
        </mxCell>
        <mxCell id="EqLmaS4XHGkuEMbsUwe7-128" value="" style="endArrow=none;html=1;rounded=0;exitX=0.041;exitY=0.007;exitDx=0;exitDy=0;exitPerimeter=0;" edge="1" parent="1" source="Gjo6DUxktxaH3FMSYRhE-1">
          <mxGeometry width="50" height="50" relative="1" as="geometry">
            <mxPoint x="-26" y="480" as="sourcePoint" />
            <mxPoint x="24" y="430" as="targetPoint" />
          </mxGeometry>
        </mxCell>
        <mxCell id="EqLmaS4XHGkuEMbsUwe7-129" value="" style="endArrow=none;html=1;rounded=0;exitX=0.177;exitY=-0.023;exitDx=0;exitDy=0;exitPerimeter=0;" edge="1" parent="1" source="Gjo6DUxktxaH3FMSYRhE-1">
          <mxGeometry width="50" height="50" relative="1" as="geometry">
            <mxPoint x="11" y="462" as="sourcePoint" />
            <mxPoint x="61" y="412" as="targetPoint" />
          </mxGeometry>
        </mxCell>
        <mxCell id="EqLmaS4XHGkuEMbsUwe7-130" value="" style="endArrow=none;html=1;rounded=0;exitX=0.585;exitY=-0.001;exitDx=0;exitDy=0;exitPerimeter=0;" edge="1" parent="1" source="Gjo6DUxktxaH3FMSYRhE-1">
          <mxGeometry width="50" height="50" relative="1" as="geometry">
            <mxPoint x="60" y="472" as="sourcePoint" />
            <mxPoint x="110" y="422" as="targetPoint" />
          </mxGeometry>
        </mxCell>
        <mxCell id="EqLmaS4XHGkuEMbsUwe7-131" value="" style="endArrow=none;html=1;rounded=0;exitX=0.951;exitY=-0.001;exitDx=0;exitDy=0;exitPerimeter=0;" edge="1" parent="1" source="Gjo6DUxktxaH3FMSYRhE-1">
          <mxGeometry width="50" height="50" relative="1" as="geometry">
            <mxPoint x="118" y="468" as="sourcePoint" />
            <mxPoint x="168" y="418" as="targetPoint" />
          </mxGeometry>
        </mxCell>
        <mxCell id="EqLmaS4XHGkuEMbsUwe7-132" value="" style="endArrow=none;html=1;rounded=0;exitX=1.002;exitY=0.085;exitDx=0;exitDy=0;exitPerimeter=0;" edge="1" parent="1" source="Gjo6DUxktxaH3FMSYRhE-1">
          <mxGeometry width="50" height="50" relative="1" as="geometry">
            <mxPoint x="150" y="495" as="sourcePoint" />
            <mxPoint x="200" y="445" as="targetPoint" />
          </mxGeometry>
        </mxCell>
        <mxCell id="EqLmaS4XHGkuEMbsUwe7-133" value="" style="endArrow=none;html=1;rounded=0;entryX=0;entryY=0.5;entryDx=0;entryDy=0;exitX=1.008;exitY=0.881;exitDx=0;exitDy=0;exitPerimeter=0;" edge="1" parent="1" source="Gjo6DUxktxaH3FMSYRhE-1" target="EqLmaS4XHGkuEMbsUwe7-127">
          <mxGeometry width="50" height="50" relative="1" as="geometry">
            <mxPoint x="131" y="538" as="sourcePoint" />
            <mxPoint x="181" y="488" as="targetPoint" />
          </mxGeometry>
        </mxCell>
        <mxCell id="EqLmaS4XHGkuEMbsUwe7-134" value="" style="ellipse;whiteSpace=wrap;html=1;aspect=fixed;" vertex="1" parent="1">
          <mxGeometry x="455" y="270" width="10" height="10" as="geometry" />
        </mxCell>
        <mxCell id="EqLmaS4XHGkuEMbsUwe7-135" value="" style="ellipse;whiteSpace=wrap;html=1;aspect=fixed;" vertex="1" parent="1">
          <mxGeometry x="530" y="270" width="10" height="10" as="geometry" />
        </mxCell>
        <mxCell id="EqLmaS4XHGkuEMbsUwe7-136" value="" style="endArrow=none;html=1;rounded=0;exitX=0.168;exitY=-0.012;exitDx=0;exitDy=0;exitPerimeter=0;" edge="1" parent="1" source="Gjo6DUxktxaH3FMSYRhE-8">
          <mxGeometry width="50" height="50" relative="1" as="geometry">
            <mxPoint x="410" y="330" as="sourcePoint" />
            <mxPoint x="460" y="280" as="targetPoint" />
          </mxGeometry>
        </mxCell>
        <mxCell id="EqLmaS4XHGkuEMbsUwe7-137" value="" style="endArrow=none;html=1;rounded=0;exitX=0.793;exitY=-0.001;exitDx=0;exitDy=0;exitPerimeter=0;" edge="1" parent="1" source="Gjo6DUxktxaH3FMSYRhE-8">
          <mxGeometry width="50" height="50" relative="1" as="geometry">
            <mxPoint x="485" y="330" as="sourcePoint" />
            <mxPoint x="535" y="280" as="targetPoint" />
          </mxGeometry>
        </mxCell>
        <mxCell id="EqLmaS4XHGkuEMbsUwe7-138" value="" style="ellipse;whiteSpace=wrap;html=1;aspect=fixed;" vertex="1" parent="1">
          <mxGeometry x="775" y="410" width="10" height="10" as="geometry" />
        </mxCell>
        <mxCell id="EqLmaS4XHGkuEMbsUwe7-139" value="" style="ellipse;whiteSpace=wrap;html=1;aspect=fixed;" vertex="1" parent="1">
          <mxGeometry x="845" y="407" width="10" height="10" as="geometry" />
        </mxCell>
        <mxCell id="EqLmaS4XHGkuEMbsUwe7-140" value="" style="ellipse;whiteSpace=wrap;html=1;aspect=fixed;" vertex="1" parent="1">
          <mxGeometry x="915" y="408" width="10" height="10" as="geometry" />
        </mxCell>
        <mxCell id="EqLmaS4XHGkuEMbsUwe7-141" value="" style="endArrow=none;html=1;rounded=0;exitX=0.057;exitY=-0.01;exitDx=0;exitDy=0;exitPerimeter=0;" edge="1" parent="1" source="Gjo6DUxktxaH3FMSYRhE-18">
          <mxGeometry width="50" height="50" relative="1" as="geometry">
            <mxPoint x="735" y="467" as="sourcePoint" />
            <mxPoint x="785" y="417" as="targetPoint" />
          </mxGeometry>
        </mxCell>
        <mxCell id="EqLmaS4XHGkuEMbsUwe7-142" value="" style="endArrow=none;html=1;rounded=0;exitX=0.416;exitY=-0.019;exitDx=0;exitDy=0;exitPerimeter=0;" edge="1" parent="1" source="Gjo6DUxktxaH3FMSYRhE-18">
          <mxGeometry width="50" height="50" relative="1" as="geometry">
            <mxPoint x="800" y="467" as="sourcePoint" />
            <mxPoint x="850" y="417" as="targetPoint" />
          </mxGeometry>
        </mxCell>
        <mxCell id="EqLmaS4XHGkuEMbsUwe7-144" value="" style="endArrow=none;html=1;rounded=0;exitX=0.942;exitY=-0.015;exitDx=0;exitDy=0;exitPerimeter=0;" edge="1" parent="1" source="Gjo6DUxktxaH3FMSYRhE-18">
          <mxGeometry width="50" height="50" relative="1" as="geometry">
            <mxPoint x="870" y="468" as="sourcePoint" />
            <mxPoint x="920" y="418" as="targetPoint" />
          </mxGeometry>
        </mxCell>
        <mxCell id="EqLmaS4XHGkuEMbsUwe7-146" value="" style="ellipse;whiteSpace=wrap;html=1;aspect=fixed;" vertex="1" parent="1">
          <mxGeometry x="1100" y="560" width="10" height="10" as="geometry" />
        </mxCell>
        <mxCell id="EqLmaS4XHGkuEMbsUwe7-147" value="" style="ellipse;whiteSpace=wrap;html=1;aspect=fixed;" vertex="1" parent="1">
          <mxGeometry x="1095" y="688" width="10" height="10" as="geometry" />
        </mxCell>
        <mxCell id="EqLmaS4XHGkuEMbsUwe7-148" value="" style="endArrow=none;html=1;rounded=0;exitX=0.878;exitY=-0.006;exitDx=0;exitDy=0;exitPerimeter=0;" edge="1" parent="1" source="Gjo6DUxktxaH3FMSYRhE-10">
          <mxGeometry width="50" height="50" relative="1" as="geometry">
            <mxPoint x="1055" y="620" as="sourcePoint" />
            <mxPoint x="1105" y="570" as="targetPoint" />
          </mxGeometry>
        </mxCell>
        <mxCell id="EqLmaS4XHGkuEMbsUwe7-149" value="" style="endArrow=none;html=1;rounded=0;exitX=0.5;exitY=0;exitDx=0;exitDy=0;" edge="1" parent="1" source="EqLmaS4XHGkuEMbsUwe7-147">
          <mxGeometry width="50" height="50" relative="1" as="geometry">
            <mxPoint x="1050" y="710" as="sourcePoint" />
            <mxPoint x="1100" y="660" as="targetPoint" />
          </mxGeometry>
        </mxCell>
        <mxCell id="EqLmaS4XHGkuEMbsUwe7-150" value="&lt;span style=&quot;white-space: nowrap;&quot;&gt;accompagnatore&lt;/span&gt;" style="rounded=1;whiteSpace=wrap;html=1;" vertex="1" parent="1">
          <mxGeometry x="895" y="980" width="90" height="25" as="geometry" />
        </mxCell>
        <mxCell id="EqLmaS4XHGkuEMbsUwe7-151" value="" style="endArrow=none;html=1;rounded=0;exitX=0.5;exitY=0;exitDx=0;exitDy=0;" edge="1" parent="1" source="EqLmaS4XHGkuEMbsUwe7-150">
          <mxGeometry width="50" height="50" relative="1" as="geometry">
            <mxPoint x="890" y="990" as="sourcePoint" />
            <mxPoint x="940" y="940" as="targetPoint" />
          </mxGeometry>
        </mxCell>
        <mxCell id="EqLmaS4XHGkuEMbsUwe7-152" value="nome" style="text;html=1;align=center;verticalAlign=middle;resizable=0;points=[];autosize=1;strokeColor=none;fillColor=none;" vertex="1" parent="1">
          <mxGeometry x="810" y="990" width="50" height="30" as="geometry" />
        </mxCell>
        <mxCell id="EqLmaS4XHGkuEMbsUwe7-153" value="parentela" style="text;html=1;align=center;verticalAlign=middle;resizable=0;points=[];autosize=1;strokeColor=none;fillColor=none;" vertex="1" parent="1">
          <mxGeometry x="985" y="1025" width="70" height="30" as="geometry" />
        </mxCell>
        <mxCell id="EqLmaS4XHGkuEMbsUwe7-154" value="cognome" style="text;html=1;align=center;verticalAlign=middle;resizable=0;points=[];autosize=1;strokeColor=none;fillColor=none;" vertex="1" parent="1">
          <mxGeometry x="810" y="1020" width="70" height="30" as="geometry" />
        </mxCell>
        <mxCell id="EqLmaS4XHGkuEMbsUwe7-155" value="c.f." style="text;html=1;align=center;verticalAlign=middle;resizable=0;points=[];autosize=1;strokeColor=none;fillColor=none;" vertex="1" parent="1">
          <mxGeometry x="890" y="1035" width="40" height="30" as="geometry" />
        </mxCell>
        <mxCell id="EqLmaS4XHGkuEMbsUwe7-156" value="data&amp;nbsp;&lt;div&gt;nascita&lt;/div&gt;" style="text;html=1;align=center;verticalAlign=middle;resizable=0;points=[];autosize=1;strokeColor=none;fillColor=none;" vertex="1" parent="1">
          <mxGeometry x="925" y="1035" width="60" height="40" as="geometry" />
        </mxCell>
        <mxCell id="EqLmaS4XHGkuEMbsUwe7-157" value="" style="ellipse;whiteSpace=wrap;html=1;aspect=fixed;" vertex="1" parent="1">
          <mxGeometry x="990" y="1025" width="10" height="10" as="geometry" />
        </mxCell>
        <mxCell id="EqLmaS4XHGkuEMbsUwe7-158" value="" style="ellipse;whiteSpace=wrap;html=1;aspect=fixed;" vertex="1" parent="1">
          <mxGeometry x="950" y="1035" width="10" height="10" as="geometry" />
        </mxCell>
        <mxCell id="EqLmaS4XHGkuEMbsUwe7-159" value="" style="ellipse;whiteSpace=wrap;html=1;aspect=fixed;" vertex="1" parent="1">
          <mxGeometry x="905" y="1035" width="10" height="10" as="geometry" />
        </mxCell>
        <mxCell id="EqLmaS4XHGkuEMbsUwe7-160" value="" style="ellipse;whiteSpace=wrap;html=1;aspect=fixed;" vertex="1" parent="1">
          <mxGeometry x="860" y="1021" width="10" height="10" as="geometry" />
        </mxCell>
        <mxCell id="EqLmaS4XHGkuEMbsUwe7-161" value="" style="ellipse;whiteSpace=wrap;html=1;aspect=fixed;" vertex="1" parent="1">
          <mxGeometry x="850" y="995" width="10" height="10" as="geometry" />
        </mxCell>
        <mxCell id="EqLmaS4XHGkuEMbsUwe7-162" value="" style="endArrow=none;html=1;rounded=0;entryX=0;entryY=0.5;entryDx=0;entryDy=0;" edge="1" parent="1" target="EqLmaS4XHGkuEMbsUwe7-150">
          <mxGeometry width="50" height="50" relative="1" as="geometry">
            <mxPoint x="860" y="999" as="sourcePoint" />
            <mxPoint x="910" y="949" as="targetPoint" />
          </mxGeometry>
        </mxCell>
        <mxCell id="EqLmaS4XHGkuEMbsUwe7-163" value="" style="endArrow=none;html=1;rounded=0;entryX=0.008;entryY=0.962;entryDx=0;entryDy=0;entryPerimeter=0;" edge="1" parent="1" target="EqLmaS4XHGkuEMbsUwe7-150">
          <mxGeometry width="50" height="50" relative="1" as="geometry">
            <mxPoint x="870" y="1023" as="sourcePoint" />
            <mxPoint x="920" y="973" as="targetPoint" />
          </mxGeometry>
        </mxCell>
        <mxCell id="EqLmaS4XHGkuEMbsUwe7-164" value="" style="endArrow=none;html=1;rounded=0;entryX=0.174;entryY=1.026;entryDx=0;entryDy=0;entryPerimeter=0;exitX=0.508;exitY=-0.023;exitDx=0;exitDy=0;exitPerimeter=0;" edge="1" parent="1" source="EqLmaS4XHGkuEMbsUwe7-155" target="EqLmaS4XHGkuEMbsUwe7-150">
          <mxGeometry width="50" height="50" relative="1" as="geometry">
            <mxPoint x="910" y="1030" as="sourcePoint" />
            <mxPoint x="960" y="990" as="targetPoint" />
          </mxGeometry>
        </mxCell>
        <mxCell id="EqLmaS4XHGkuEMbsUwe7-165" value="" style="endArrow=none;html=1;rounded=0;entryX=0.667;entryY=1.003;entryDx=0;entryDy=0;entryPerimeter=0;" edge="1" parent="1" target="EqLmaS4XHGkuEMbsUwe7-150">
          <mxGeometry width="50" height="50" relative="1" as="geometry">
            <mxPoint x="955" y="1035" as="sourcePoint" />
            <mxPoint x="1005" y="985" as="targetPoint" />
          </mxGeometry>
        </mxCell>
        <mxCell id="EqLmaS4XHGkuEMbsUwe7-166" value="" style="endArrow=none;html=1;rounded=0;entryX=0.941;entryY=0.987;entryDx=0;entryDy=0;entryPerimeter=0;" edge="1" parent="1" target="EqLmaS4XHGkuEMbsUwe7-150">
          <mxGeometry width="50" height="50" relative="1" as="geometry">
            <mxPoint x="995" y="1025" as="sourcePoint" />
            <mxPoint x="1045" y="975" as="targetPoint" />
          </mxGeometry>
        </mxCell>
        <mxCell id="EqLmaS4XHGkuEMbsUwe7-167" value="" style="ellipse;whiteSpace=wrap;html=1;aspect=fixed;" vertex="1" parent="1">
          <mxGeometry x="945" y="750" width="10" height="10" as="geometry" />
        </mxCell>
        <mxCell id="EqLmaS4XHGkuEMbsUwe7-168" value="" style="ellipse;whiteSpace=wrap;html=1;aspect=fixed;" vertex="1" parent="1">
          <mxGeometry x="910" y="718" width="10" height="10" as="geometry" />
        </mxCell>
        <mxCell id="EqLmaS4XHGkuEMbsUwe7-169" value="" style="ellipse;whiteSpace=wrap;html=1;aspect=fixed;" vertex="1" parent="1">
          <mxGeometry x="870" y="730" width="10" height="10" as="geometry" />
        </mxCell>
        <mxCell id="EqLmaS4XHGkuEMbsUwe7-170" value="" style="ellipse;whiteSpace=wrap;html=1;aspect=fixed;" vertex="1" parent="1">
          <mxGeometry x="840" y="718" width="10" height="10" as="geometry" />
        </mxCell>
        <mxCell id="EqLmaS4XHGkuEMbsUwe7-171" value="" style="ellipse;whiteSpace=wrap;html=1;aspect=fixed;" vertex="1" parent="1">
          <mxGeometry x="800" y="728" width="10" height="10" as="geometry" />
        </mxCell>
        <mxCell id="EqLmaS4XHGkuEMbsUwe7-172" value="" style="ellipse;whiteSpace=wrap;html=1;aspect=fixed;" vertex="1" parent="1">
          <mxGeometry x="763" y="742" width="10" height="10" as="geometry" />
        </mxCell>
        <mxCell id="EqLmaS4XHGkuEMbsUwe7-173" value="" style="endArrow=none;html=1;rounded=0;entryX=0.981;entryY=0.635;entryDx=0;entryDy=0;entryPerimeter=0;exitX=-0.009;exitY=0.04;exitDx=0;exitDy=0;exitPerimeter=0;" edge="1" parent="1" source="Gjo6DUxktxaH3FMSYRhE-5" target="EqLmaS4XHGkuEMbsUwe7-172">
          <mxGeometry width="50" height="50" relative="1" as="geometry">
            <mxPoint x="750" y="810" as="sourcePoint" />
            <mxPoint x="800" y="760" as="targetPoint" />
          </mxGeometry>
        </mxCell>
        <mxCell id="EqLmaS4XHGkuEMbsUwe7-174" value="" style="endArrow=none;html=1;rounded=0;exitX=0.043;exitY=-0.012;exitDx=0;exitDy=0;exitPerimeter=0;" edge="1" parent="1" source="Gjo6DUxktxaH3FMSYRhE-5">
          <mxGeometry width="50" height="50" relative="1" as="geometry">
            <mxPoint x="755" y="788" as="sourcePoint" />
            <mxPoint x="805" y="738" as="targetPoint" />
          </mxGeometry>
        </mxCell>
        <mxCell id="EqLmaS4XHGkuEMbsUwe7-175" value="" style="endArrow=none;html=1;rounded=0;exitX=0.379;exitY=-0.012;exitDx=0;exitDy=0;exitPerimeter=0;" edge="1" parent="1" source="Gjo6DUxktxaH3FMSYRhE-5">
          <mxGeometry width="50" height="50" relative="1" as="geometry">
            <mxPoint x="795" y="778" as="sourcePoint" />
            <mxPoint x="845" y="728" as="targetPoint" />
          </mxGeometry>
        </mxCell>
        <mxCell id="EqLmaS4XHGkuEMbsUwe7-176" value="" style="endArrow=none;html=1;rounded=0;exitX=0.621;exitY=0.001;exitDx=0;exitDy=0;exitPerimeter=0;" edge="1" parent="1" source="Gjo6DUxktxaH3FMSYRhE-5">
          <mxGeometry width="50" height="50" relative="1" as="geometry">
            <mxPoint x="825" y="790" as="sourcePoint" />
            <mxPoint x="875" y="740" as="targetPoint" />
          </mxGeometry>
        </mxCell>
        <mxCell id="EqLmaS4XHGkuEMbsUwe7-177" value="" style="endArrow=none;html=1;rounded=0;exitX=0.959;exitY=-0.002;exitDx=0;exitDy=0;exitPerimeter=0;" edge="1" parent="1" source="Gjo6DUxktxaH3FMSYRhE-5">
          <mxGeometry width="50" height="50" relative="1" as="geometry">
            <mxPoint x="865" y="778" as="sourcePoint" />
            <mxPoint x="915" y="728" as="targetPoint" />
          </mxGeometry>
        </mxCell>
        <mxCell id="EqLmaS4XHGkuEMbsUwe7-178" value="" style="endArrow=none;html=1;rounded=0;exitX=0.999;exitY=0.152;exitDx=0;exitDy=0;exitPerimeter=0;" edge="1" parent="1" source="Gjo6DUxktxaH3FMSYRhE-5">
          <mxGeometry width="50" height="50" relative="1" as="geometry">
            <mxPoint x="896" y="807" as="sourcePoint" />
            <mxPoint x="946" y="757" as="targetPoint" />
          </mxGeometry>
        </mxCell>
        <mxCell id="EqLmaS4XHGkuEMbsUwe7-179" value="" style="ellipse;whiteSpace=wrap;html=1;aspect=fixed;" vertex="1" parent="1">
          <mxGeometry x="570" y="590" width="10" height="10" as="geometry" />
        </mxCell>
        <mxCell id="EqLmaS4XHGkuEMbsUwe7-180" value="" style="ellipse;whiteSpace=wrap;html=1;aspect=fixed;" vertex="1" parent="1">
          <mxGeometry x="683" y="569" width="10" height="10" as="geometry" />
        </mxCell>
        <mxCell id="EqLmaS4XHGkuEMbsUwe7-181" value="" style="ellipse;whiteSpace=wrap;html=1;aspect=fixed;" vertex="1" parent="1">
          <mxGeometry x="605" y="562" width="10" height="10" as="geometry" />
        </mxCell>
        <mxCell id="EqLmaS4XHGkuEMbsUwe7-182" value="" style="ellipse;whiteSpace=wrap;html=1;aspect=fixed;" vertex="1" parent="1">
          <mxGeometry x="730" y="572" width="10" height="10" as="geometry" />
        </mxCell>
        <mxCell id="EqLmaS4XHGkuEMbsUwe7-183" value="" style="ellipse;whiteSpace=wrap;html=1;aspect=fixed;" vertex="1" parent="1">
          <mxGeometry x="690" y="678" width="10" height="10" as="geometry" />
        </mxCell>
        <mxCell id="EqLmaS4XHGkuEMbsUwe7-184" value="" style="endArrow=none;html=1;rounded=0;exitX=-0.003;exitY=0.122;exitDx=0;exitDy=0;exitPerimeter=0;" edge="1" parent="1" source="Gjo6DUxktxaH3FMSYRhE-17">
          <mxGeometry width="50" height="50" relative="1" as="geometry">
            <mxPoint x="530" y="646" as="sourcePoint" />
            <mxPoint x="580" y="596" as="targetPoint" />
          </mxGeometry>
        </mxCell>
        <mxCell id="EqLmaS4XHGkuEMbsUwe7-185" value="" style="endArrow=none;html=1;rounded=0;exitX=0.083;exitY=-0.012;exitDx=0;exitDy=0;exitPerimeter=0;" edge="1" parent="1" source="Gjo6DUxktxaH3FMSYRhE-17">
          <mxGeometry width="50" height="50" relative="1" as="geometry">
            <mxPoint x="560" y="622" as="sourcePoint" />
            <mxPoint x="610" y="572" as="targetPoint" />
          </mxGeometry>
        </mxCell>
        <mxCell id="EqLmaS4XHGkuEMbsUwe7-186" value="" style="endArrow=none;html=1;rounded=0;exitX=0.737;exitY=-0.006;exitDx=0;exitDy=0;exitPerimeter=0;" edge="1" parent="1" source="Gjo6DUxktxaH3FMSYRhE-17">
          <mxGeometry width="50" height="50" relative="1" as="geometry">
            <mxPoint x="639" y="629" as="sourcePoint" />
            <mxPoint x="689" y="579" as="targetPoint" />
          </mxGeometry>
        </mxCell>
        <mxCell id="EqLmaS4XHGkuEMbsUwe7-187" value="" style="endArrow=none;html=1;rounded=0;" edge="1" parent="1">
          <mxGeometry width="50" height="50" relative="1" as="geometry">
            <mxPoint x="710" y="600" as="sourcePoint" />
            <mxPoint x="731" y="579" as="targetPoint" />
          </mxGeometry>
        </mxCell>
        <mxCell id="EqLmaS4XHGkuEMbsUwe7-188" value="" style="endArrow=none;html=1;rounded=0;exitX=0.5;exitY=0;exitDx=0;exitDy=0;" edge="1" parent="1" source="EqLmaS4XHGkuEMbsUwe7-183">
          <mxGeometry width="50" height="50" relative="1" as="geometry">
            <mxPoint x="646" y="710" as="sourcePoint" />
            <mxPoint x="696" y="660" as="targetPoint" />
          </mxGeometry>
        </mxCell>
        <mxCell id="EqLmaS4XHGkuEMbsUwe7-189" value="" style="ellipse;whiteSpace=wrap;html=1;aspect=fixed;" vertex="1" parent="1">
          <mxGeometry x="-15" y="260" width="10" height="10" as="geometry" />
        </mxCell>
        <mxCell id="EqLmaS4XHGkuEMbsUwe7-190" value="" style="ellipse;whiteSpace=wrap;html=1;aspect=fixed;" vertex="1" parent="1">
          <mxGeometry x="-105" y="263" width="10" height="10" as="geometry" />
        </mxCell>
        <mxCell id="EqLmaS4XHGkuEMbsUwe7-191" value="" style="endArrow=none;html=1;rounded=0;exitX=0.172;exitY=-0.009;exitDx=0;exitDy=0;exitPerimeter=0;" edge="1" parent="1" source="Gjo6DUxktxaH3FMSYRhE-14">
          <mxGeometry width="50" height="50" relative="1" as="geometry">
            <mxPoint x="-150" y="323" as="sourcePoint" />
            <mxPoint x="-100" y="273" as="targetPoint" />
          </mxGeometry>
        </mxCell>
        <mxCell id="EqLmaS4XHGkuEMbsUwe7-192" value="" style="endArrow=none;html=1;rounded=0;exitX=0.924;exitY=-0.001;exitDx=0;exitDy=0;exitPerimeter=0;" edge="1" parent="1" source="Gjo6DUxktxaH3FMSYRhE-14">
          <mxGeometry width="50" height="50" relative="1" as="geometry">
            <mxPoint x="-60" y="320" as="sourcePoint" />
            <mxPoint x="-10" y="270" as="targetPoint" />
          </mxGeometry>
        </mxCell>
        <mxCell id="EqLmaS4XHGkuEMbsUwe7-193" value="" style="ellipse;whiteSpace=wrap;html=1;aspect=fixed;" vertex="1" parent="1">
          <mxGeometry x="-86" y="897" width="10" height="10" as="geometry" />
        </mxCell>
        <mxCell id="EqLmaS4XHGkuEMbsUwe7-194" value="" style="ellipse;whiteSpace=wrap;html=1;aspect=fixed;" vertex="1" parent="1">
          <mxGeometry x="-80" y="1005" width="10" height="10" as="geometry" />
        </mxCell>
        <mxCell id="EqLmaS4XHGkuEMbsUwe7-195" value="" style="ellipse;whiteSpace=wrap;html=1;aspect=fixed;" vertex="1" parent="1">
          <mxGeometry x="55" y="889" width="10" height="10" as="geometry" />
        </mxCell>
        <mxCell id="EqLmaS4XHGkuEMbsUwe7-197" value="" style="ellipse;whiteSpace=wrap;html=1;aspect=fixed;" vertex="1" parent="1">
          <mxGeometry x="140" y="889" width="10" height="10" as="geometry" />
        </mxCell>
        <mxCell id="EqLmaS4XHGkuEMbsUwe7-198" value="" style="ellipse;whiteSpace=wrap;html=1;aspect=fixed;" vertex="1" parent="1">
          <mxGeometry x="57" y="993" width="10" height="10" as="geometry" />
        </mxCell>
        <mxCell id="EqLmaS4XHGkuEMbsUwe7-199" value="" style="ellipse;whiteSpace=wrap;html=1;aspect=fixed;" vertex="1" parent="1">
          <mxGeometry x="220" y="885" width="10" height="10" as="geometry" />
        </mxCell>
        <mxCell id="EqLmaS4XHGkuEMbsUwe7-200" value="" style="ellipse;whiteSpace=wrap;html=1;aspect=fixed;" vertex="1" parent="1">
          <mxGeometry x="285" y="879" width="10" height="10" as="geometry" />
        </mxCell>
        <mxCell id="EqLmaS4XHGkuEMbsUwe7-201" value="" style="ellipse;whiteSpace=wrap;html=1;aspect=fixed;" vertex="1" parent="1">
          <mxGeometry x="220" y="998" width="10" height="10" as="geometry" />
        </mxCell>
        <mxCell id="EqLmaS4XHGkuEMbsUwe7-202" value="" style="ellipse;whiteSpace=wrap;html=1;aspect=fixed;" vertex="1" parent="1">
          <mxGeometry x="305" y="1001" width="10" height="10" as="geometry" />
        </mxCell>
        <mxCell id="EqLmaS4XHGkuEMbsUwe7-203" value="" style="ellipse;whiteSpace=wrap;html=1;aspect=fixed;" vertex="1" parent="1">
          <mxGeometry x="347" y="1082" width="10" height="10" as="geometry" />
        </mxCell>
        <mxCell id="EqLmaS4XHGkuEMbsUwe7-205" value="" style="ellipse;whiteSpace=wrap;html=1;aspect=fixed;" vertex="1" parent="1">
          <mxGeometry x="359" y="1125" width="10" height="10" as="geometry" />
        </mxCell>
        <mxCell id="EqLmaS4XHGkuEMbsUwe7-206" value="" style="ellipse;whiteSpace=wrap;html=1;aspect=fixed;" vertex="1" parent="1">
          <mxGeometry x="220" y="1057" width="10" height="10" as="geometry" />
        </mxCell>
        <mxCell id="EqLmaS4XHGkuEMbsUwe7-207" value="" style="ellipse;whiteSpace=wrap;html=1;aspect=fixed;" vertex="1" parent="1">
          <mxGeometry x="240" y="1155" width="10" height="10" as="geometry" />
        </mxCell>
        <mxCell id="EqLmaS4XHGkuEMbsUwe7-208" value="" style="endArrow=none;html=1;rounded=0;exitX=0.219;exitY=-0.018;exitDx=0;exitDy=0;exitPerimeter=0;" edge="1" parent="1" source="Gjo6DUxktxaH3FMSYRhE-15">
          <mxGeometry width="50" height="50" relative="1" as="geometry">
            <mxPoint x="176" y="945" as="sourcePoint" />
            <mxPoint x="226" y="895" as="targetPoint" />
          </mxGeometry>
        </mxCell>
        <mxCell id="EqLmaS4XHGkuEMbsUwe7-209" value="" style="endArrow=none;html=1;rounded=0;exitX=0.75;exitY=0;exitDx=0;exitDy=0;entryX=0.5;entryY=1;entryDx=0;entryDy=0;" edge="1" parent="1" source="Gjo6DUxktxaH3FMSYRhE-15" target="EqLmaS4XHGkuEMbsUwe7-200">
          <mxGeometry width="50" height="50" relative="1" as="geometry">
            <mxPoint x="240" y="940" as="sourcePoint" />
            <mxPoint x="290" y="890" as="targetPoint" />
          </mxGeometry>
        </mxCell>
        <mxCell id="EqLmaS4XHGkuEMbsUwe7-210" value="" style="endArrow=none;html=1;rounded=0;entryX=0.207;entryY=0.995;entryDx=0;entryDy=0;entryPerimeter=0;" edge="1" parent="1" target="Gjo6DUxktxaH3FMSYRhE-15">
          <mxGeometry width="50" height="50" relative="1" as="geometry">
            <mxPoint x="225" y="998" as="sourcePoint" />
            <mxPoint x="275" y="948" as="targetPoint" />
          </mxGeometry>
        </mxCell>
        <mxCell id="EqLmaS4XHGkuEMbsUwe7-211" value="" style="endArrow=none;html=1;rounded=0;entryX=0.914;entryY=1.012;entryDx=0;entryDy=0;entryPerimeter=0;" edge="1" parent="1" target="Gjo6DUxktxaH3FMSYRhE-15">
          <mxGeometry width="50" height="50" relative="1" as="geometry">
            <mxPoint x="310" y="1001" as="sourcePoint" />
            <mxPoint x="360" y="951" as="targetPoint" />
          </mxGeometry>
        </mxCell>
        <mxCell id="EqLmaS4XHGkuEMbsUwe7-213" value="" style="endArrow=none;html=1;rounded=0;entryX=0.391;entryY=1.003;entryDx=0;entryDy=0;entryPerimeter=0;" edge="1" parent="1" target="Gjo6DUxktxaH3FMSYRhE-16">
          <mxGeometry width="50" height="50" relative="1" as="geometry">
            <mxPoint x="-74" y="1005" as="sourcePoint" />
            <mxPoint x="-24" y="955" as="targetPoint" />
          </mxGeometry>
        </mxCell>
        <mxCell id="EqLmaS4XHGkuEMbsUwe7-214" value="" style="endArrow=none;html=1;rounded=0;entryX=0.5;entryY=1;entryDx=0;entryDy=0;" edge="1" parent="1" target="EqLmaS4XHGkuEMbsUwe7-193">
          <mxGeometry width="50" height="50" relative="1" as="geometry">
            <mxPoint x="-80" y="920" as="sourcePoint" />
            <mxPoint x="-30" y="870" as="targetPoint" />
          </mxGeometry>
        </mxCell>
        <mxCell id="EqLmaS4XHGkuEMbsUwe7-215" value="" style="endArrow=none;html=1;rounded=0;exitX=0.173;exitY=-0.017;exitDx=0;exitDy=0;exitPerimeter=0;entryX=0.5;entryY=1;entryDx=0;entryDy=0;" edge="1" parent="1" source="Gjo6DUxktxaH3FMSYRhE-11" target="EqLmaS4XHGkuEMbsUwe7-195">
          <mxGeometry width="50" height="50" relative="1" as="geometry">
            <mxPoint x="10" y="950" as="sourcePoint" />
            <mxPoint x="60" y="900" as="targetPoint" />
          </mxGeometry>
        </mxCell>
        <mxCell id="EqLmaS4XHGkuEMbsUwe7-216" value="" style="endArrow=none;html=1;rounded=0;entryX=0.5;entryY=1;entryDx=0;entryDy=0;" edge="1" parent="1" target="EqLmaS4XHGkuEMbsUwe7-197">
          <mxGeometry width="50" height="50" relative="1" as="geometry">
            <mxPoint x="145" y="920" as="sourcePoint" />
            <mxPoint x="195" y="870" as="targetPoint" />
          </mxGeometry>
        </mxCell>
        <mxCell id="EqLmaS4XHGkuEMbsUwe7-217" value="" style="endArrow=none;html=1;rounded=0;entryX=0.181;entryY=1;entryDx=0;entryDy=0;entryPerimeter=0;" edge="1" parent="1" target="Gjo6DUxktxaH3FMSYRhE-11">
          <mxGeometry width="50" height="50" relative="1" as="geometry">
            <mxPoint x="62" y="993" as="sourcePoint" />
            <mxPoint x="112" y="943" as="targetPoint" />
          </mxGeometry>
        </mxCell>
        <mxCell id="EqLmaS4XHGkuEMbsUwe7-218" value="" style="endArrow=none;html=1;rounded=0;entryX=0.043;entryY=0.005;entryDx=0;entryDy=0;entryPerimeter=0;" edge="1" parent="1" target="EqLmaS4XHGkuEMbsUwe7-88">
          <mxGeometry width="50" height="50" relative="1" as="geometry">
            <mxPoint x="245" y="1155" as="sourcePoint" />
            <mxPoint x="295" y="1105" as="targetPoint" />
          </mxGeometry>
        </mxCell>
        <mxCell id="EqLmaS4XHGkuEMbsUwe7-219" value="" style="endArrow=none;html=1;rounded=0;exitX=0.88;exitY=0.952;exitDx=0;exitDy=0;exitPerimeter=0;" edge="1" parent="1" source="EqLmaS4XHGkuEMbsUwe7-89">
          <mxGeometry width="50" height="50" relative="1" as="geometry">
            <mxPoint x="176" y="1117" as="sourcePoint" />
            <mxPoint x="226" y="1067" as="targetPoint" />
          </mxGeometry>
        </mxCell>
        <mxCell id="EqLmaS4XHGkuEMbsUwe7-220" value="" style="endArrow=none;html=1;rounded=0;exitX=1.003;exitY=0.104;exitDx=0;exitDy=0;exitPerimeter=0;" edge="1" parent="1" source="Gjo6DUxktxaH3FMSYRhE-12">
          <mxGeometry width="50" height="50" relative="1" as="geometry">
            <mxPoint x="297" y="1136" as="sourcePoint" />
            <mxPoint x="347" y="1086" as="targetPoint" />
          </mxGeometry>
        </mxCell>
        <mxCell id="EqLmaS4XHGkuEMbsUwe7-221" value="" style="endArrow=none;html=1;rounded=0;exitX=1.008;exitY=0.838;exitDx=0;exitDy=0;exitPerimeter=0;" edge="1" parent="1" source="Gjo6DUxktxaH3FMSYRhE-12">
          <mxGeometry width="50" height="50" relative="1" as="geometry">
            <mxPoint x="309" y="1180" as="sourcePoint" />
            <mxPoint x="359" y="1130" as="targetPoint" />
          </mxGeometry>
        </mxCell>
      </root>
    </mxGraphModel>
  </diagram>
</mxfile>
